<svg xmlns="http://www.w3.org/2000/svg" xmlns:xlink="http://www.w3.org/1999/xlink" viewBox="0 0 101.55 73.9"><defs><style>.cls-1{fill:#48c395;}.cls-2,.cls-3{fill:#d8d8d8;}.cls-3,.cls-6,.cls-7{mix-blend-mode:multiply;}.cls-4{fill:#898989;}.cls-5,.cls-6,.cls-7{fill:#eaebe6;}.cls-7{opacity:0.32;}.cls-8{fill:#242424;}.cls-9{fill:#221a22;}.cls-10{fill:#a8a8a8;}.cls-11{fill:#332c33;}.cls-12{fill:#c0bec0;}.cls-13{fill:#5e585e;opacity:0.52;mix-blend-mode:screen;}.cls-14{fill:#eae9ea;}.cls-15{fill:#ddd;}.cls-16{fill:#f4f3f4;}.cls-17{fill:#9a9a9b;}.cls-18{fill:#ff476f;}.cls-19{fill:#8d8d8d;}.cls-20{fill:#d3d3d3;}.cls-21{fill:#ffcb00;}.cls-22{fill:#797979;}</style><symbol id="New_Symbol_5" data-name="New Symbol 5" viewBox="0 0 101.55 73.9"><ellipse class="cls-1" cx="50.77" cy="62.27" rx="50.77" ry="11.63"/><polygon class="cls-2" points="59.89 48.73 56.38 48.73 57.41 19.94 58.86 19.94 59.89 48.73"/><polygon class="cls-3" points="58.96 22.77 58.86 19.94 57.41 19.94 57.27 23.97 58.96 22.77"/><path class="cls-4" d="M59.21,19.47a1.08,1.08,0,1,1-1.08-1.07A1.08,1.08,0,0,1,59.21,19.47Z"/><path class="cls-5" d="M58.75,5.45a1,1,0,0,0-.56-.83h0a0,0,0,0,1,0,0c-.31.76-1.4,11.79-1.52,13.09a.28.28,0,0,0,.07.22l.83.84a.28.28,0,0,0,.2.08h.79a.27.27,0,0,0,.19-.08l.83-.84a.25.25,0,0,0,.08-.21C59.54,16.46,58.82,6.26,58.75,5.45Z"/><path class="cls-5" d="M45.7,26a1,1,0,0,0-.43.9v0s0,0,0,0c.81-.1,10.91-4.68,12.1-5.22a.27.27,0,0,0,.15-.18l.32-1.13a.26.26,0,0,0,0-.21l-.4-.69a.26.26,0,0,0-.16-.13l-1.15-.3a.29.29,0,0,0-.22,0Z"/><path class="cls-5" d="M70.27,26.68a1,1,0,0,0,1-.1h0s0,0,0,0c-.52-.63-9.73-6.78-10.82-7.51a.28.28,0,0,0-.23,0l-1.13.34a.27.27,0,0,0-.17.13l-.37.7a.26.26,0,0,0,0,.21l.35,1.13a.31.31,0,0,0,.15.17C60.18,22.19,69.52,26.36,70.27,26.68Z"/><path class="cls-6" d="M60.47,19.05a.28.28,0,0,0-.23,0l-1.05.31a1.07,1.07,0,0,0-.37-.67l.73-.74a.25.25,0,0,0,.08-.21c-.09-1.24-.81-11.44-.88-12.25a1,1,0,0,0-.56-.83h0a0,0,0,0,1,0,0c-.31.76-1.4,11.79-1.52,13.09a.28.28,0,0,0,.07.22l.74.75a1,1,0,0,0-.37.67l-1-.26a.29.29,0,0,0-.22,0L45.7,26a1,1,0,0,0-.43.9v0s0,0,0,0c.81-.1,10.83-4.64,12.09-5.22l-1,27h3.51l-1-27.18a.34.34,0,0,0,.14.15c1.13.5,10.47,4.67,11.22,5a1,1,0,0,0,1-.1h0s0,0,0,0C70.77,25.93,61.56,19.78,60.47,19.05Z"/><polygon class="cls-2" points="47.44 52.52 43.45 52.52 44.62 19.77 46.26 19.77 47.44 52.52"/><polygon class="cls-3" points="46.38 22.99 46.26 19.77 44.62 19.77 44.45 24.36 46.38 22.99"/><circle class="cls-4" cx="45.44" cy="19.24" r="1.22"/><path class="cls-5" d="M46.14,3.28a1.18,1.18,0,0,0-.64-.94h0s0,0,0,0c-.35.86-1.59,13.41-1.73,14.9a.27.27,0,0,0,.09.24l.94,1a.28.28,0,0,0,.22.09h.9a.31.31,0,0,0,.22-.09l1-1a.34.34,0,0,0,.09-.24C47.05,15.82,46.22,4.21,46.14,3.28Z"/><path class="cls-5" d="M31.3,26.67a1.16,1.16,0,0,0-.5,1s0,0,0,0,0,0,0,0c.92-.12,12.4-5.33,13.77-5.95a.34.34,0,0,0,.17-.2l.35-1.29a.33.33,0,0,0,0-.24l-.45-.78a.32.32,0,0,0-.19-.15l-1.3-.34a.31.31,0,0,0-.25,0C41.7,19.62,32.06,26.13,31.3,26.67Z"/><path class="cls-5" d="M59.25,27.44a1.15,1.15,0,0,0,1.13-.12s0,0,0,0h0c-.59-.72-11.07-7.73-12.32-8.56a.29.29,0,0,0-.26,0l-1.28.37a.33.33,0,0,0-.19.16l-.42.79a.34.34,0,0,0,0,.24l.4,1.29a.35.35,0,0,0,.17.19C47.77,22.33,58.39,27.08,59.25,27.44Z"/><path class="cls-7" d="M48.09,18.75a.29.29,0,0,0-.26,0l-1.19.35a1.16,1.16,0,0,0-.42-.76l.84-.85a.34.34,0,0,0,.09-.24c-.1-1.4-.93-13-1-13.94a1.18,1.18,0,0,0-.64-.94h0s0,0,0,0c-.35.86-1.59,13.41-1.73,14.9a.27.27,0,0,0,.09.24l.83.85a1.19,1.19,0,0,0-.42.77l-1.12-.3a.31.31,0,0,0-.25,0c-1.17.79-10.81,7.3-11.57,7.84a1.16,1.16,0,0,0-.5,1s0,0,0,0,0,0,0,0c.91-.12,12.31-5.29,13.75-5.94l-1.1,30.73h4l-1.1-30.93a.35.35,0,0,0,.15.17c1.29.57,11.91,5.32,12.77,5.68a1.15,1.15,0,0,0,1.13-.12s0,0,0,0h0C59.82,26.59,49.34,19.58,48.09,18.75Z"/><polygon class="cls-2" points="30.03 55.07 25.66 55.07 26.95 19.15 28.75 19.15 30.03 55.07"/><polygon class="cls-3" points="28.88 22.68 28.75 19.15 26.95 19.15 26.77 24.18 28.88 22.68"/><path class="cls-4" d="M29.19,18.56a1.34,1.34,0,1,1-1.34-1.34A1.34,1.34,0,0,1,29.19,18.56Z"/><path class="cls-5" d="M28.61,1.06a1.26,1.26,0,0,0-.7-1h0V0c-.39.94-1.74,14.71-1.9,16.34a.33.33,0,0,0,.09.27l1,1.05a.31.31,0,0,0,.24.1h1a.31.31,0,0,0,.24-.1l1-1.05a.35.35,0,0,0,.1-.26C29.61,14.81,28.7,2.08,28.61,1.06Z"/><path class="cls-5" d="M12.33,26.71a1.28,1.28,0,0,0-.54,1.12v0s0,0,0,0c1-.13,13.61-5.84,15.11-6.52a.31.31,0,0,0,.18-.22l.39-1.42a.3.3,0,0,0,0-.26l-.49-.86a.47.47,0,0,0-.21-.16l-1.43-.37a.39.39,0,0,0-.28.05C23.74,19,13.17,26.13,12.33,26.71Z"/><path class="cls-5" d="M43,27.56a1.28,1.28,0,0,0,1.24-.13h0c-.65-.78-12.15-8.47-13.51-9.38a.33.33,0,0,0-.29,0l-1.41.41a.34.34,0,0,0-.2.17l-.47.87a.36.36,0,0,0,0,.27l.43,1.4a.33.33,0,0,0,.19.21C30.4,22,42.05,27.16,43,27.56Z"/><path class="cls-8" d="M91.68,63.18S92.85,65,91,65H34.78c-1.2,0-1.76-2-.45-2.33S90.14,62.66,91.68,63.18Z"/><path class="cls-9" d="M90.63,63.19h-19S75,51.06,82,52.88,91.16,58.49,90.63,63.19Z"/><path class="cls-9" d="M49.59,63.19H34.37s-.46-12.13,6.54-10.31S50.13,58.49,49.59,63.19Z"/><path class="cls-10" d="M33.7,63.19a47.28,47.28,0,0,1,.39-11.83c.61-3.3,1.3-6.58,4.35-8,8.07-3.79,27.65-1.68,32.61,0S91.13,53,92.14,57.47a10.69,10.69,0,0,1-.42,5.72h-2.6s1.09-7-7.9-7c0,0-6.81,0-6.81,7H47s1-7-5.88-7c0,0-6.48-.28-5.88,7Z"/><path class="cls-11" d="M76.57,63.19A5.38,5.38,0,1,0,82,57.81,5.37,5.37,0,0,0,76.57,63.19Z"/><path class="cls-12" d="M78.65,63.19a3.3,3.3,0,1,0,3.3-3.3A3.29,3.29,0,0,0,78.65,63.19Z"/><path class="cls-11" d="M35.75,63.19a5.38,5.38,0,1,0,5.38-5.38A5.37,5.37,0,0,0,35.75,63.19Z"/><circle class="cls-12" cx="41.13" cy="63.19" r="3.3"/><path class="cls-11" d="M82,51.66s-9.64-6-14.31-6.94S44.82,43,42,44.72s-3.19,5.39-3.19,5.39Z"/><path class="cls-13" d="M39.64,47.49A6.58,6.58,0,0,1,42,44.72c2.8-1.76,20.95-1,25.62,0a40.28,40.28,0,0,1,8.81,3.79c-1.33,0-7.4-1.41-8.69-1.62C51.6,44.25,40.3,47.34,39.64,47.49Z"/><path class="cls-11" d="M87.43,52.58a13.74,13.74,0,0,1,1.41.79A23.28,23.28,0,0,1,91,55.44s-3.4.24-4.87-.78a2,2,0,0,1-.77-1.78.73.73,0,0,1,.86-.69A5.47,5.47,0,0,1,87.43,52.58Z"/><path class="cls-14" d="M87.94,52.86a9.62,9.62,0,0,1,1,.56,18,18,0,0,1,1.53,1.49s-2.44.16-3.5-.56a1.43,1.43,0,0,1-.54-1.28.52.52,0,0,1,.61-.49A4.09,4.09,0,0,1,87.94,52.86Z"/><polygon class="cls-10" points="57.82 43.33 59.57 51.16 57.82 51.16 56.49 43.33 57.82 43.33"/><rect class="cls-11" x="41.13" y="51.68" width="3.97" height="0.87"/><rect class="cls-11" x="61.76" y="52.12" width="3.97" height="0.87"/><path class="cls-15" d="M78.66,63.12A3.3,3.3,0,1,0,82,59.88,3.3,3.3,0,0,0,78.66,63.12Z"/><path class="cls-16" d="M80.56,63.21a1.47,1.47,0,1,0,1.49-1.44A1.46,1.46,0,0,0,80.56,63.21Z"/><path class="cls-17" d="M83.16,61.91l-.6-1.6a2.92,2.92,0,0,1,2.16,2Z"/><path class="cls-17" d="M81.15,61.71l-1.79.08A2.92,2.92,0,0,1,82,60.24h.08Z"/><path class="cls-17" d="M83.59,63.89l1.25-1c0,.11,0,.22,0,.33a3,3,0,0,1-1.15,2.27Z"/><path class="cls-17" d="M80.34,63.56l-.46,1.67A2.89,2.89,0,0,1,79,63.11a2.84,2.84,0,0,1,.17-.93Z"/><path class="cls-17" d="M81.84,64.9l1.35.89a2.88,2.88,0,0,1-2.94-.25Z"/><path class="cls-15" d="M37.83,63.12a3.3,3.3,0,1,0,3.36-3.23A3.3,3.3,0,0,0,37.83,63.12Z"/><path class="cls-16" d="M39.73,63.21a1.47,1.47,0,1,0,1.5-1.44A1.48,1.48,0,0,0,39.73,63.21Z"/><path class="cls-17" d="M42.34,61.92l-.6-1.6a2.91,2.91,0,0,1,2.16,2Z"/><path class="cls-17" d="M40.33,61.72l-1.79.08a2.91,2.91,0,0,1,2.63-1.55h.08Z"/><path class="cls-17" d="M42.76,63.89l1.26-1c0,.1,0,.21,0,.32a2.91,2.91,0,0,1-1.16,2.27Z"/><path class="cls-17" d="M39.52,63.56l-.47,1.67a2.89,2.89,0,0,1-.85-2.12,2.82,2.82,0,0,1,.16-.92Z"/><path class="cls-17" d="M41,64.91l1.35.89a2.94,2.94,0,0,1-2.94-.25Z"/><path class="cls-18" d="M33.76,53.92A15.53,15.53,0,0,0,33.55,56c.19.33,2.74,0,2.74,0s1.89-2,1.69-2.29S33.76,53.92,33.76,53.92Z"/><path class="cls-19" d="M70.54,62.57a2.75,2.75,0,0,0,2.69-2.18l1.61-7.63-.6-.13-1.61,7.64A2.14,2.14,0,0,1,70.5,62l-19.23-.43a1.74,1.74,0,0,1-1.61-1.21C49,58.11,47,54.44,41.09,54.44H40.9a1.76,1.76,0,0,1-1.73-1.64c0-.58-.05-1.13,0-1.63l-.6,0a16.29,16.29,0,0,0,0,1.69,2.38,2.38,0,0,0,2.35,2.21c5.61-.09,7.52,3.38,8.17,5.45a2.33,2.33,0,0,0,2.18,1.64l19.22.43Z"/><path class="cls-11" d="M14.24,59.1H7V40.36a3.56,3.56,0,0,1,3.57-3.57h.07a3.57,3.57,0,0,1,3.57,3.57Z"/><rect class="cls-20" x="6.22" y="57.97" width="8.82" height="1.74"/><circle class="cls-21" cx="10.63" cy="46.17" r="2.36"/><polygon class="cls-11" points="10.27 46.17 11.28 44.73 10.39 44.73 9.74 46.66 10.99 46.31 10.6 47.2 10.45 46.98 10.41 47.81 11.02 47.24 10.74 47.27 11.73 45.75 10.27 46.17"/><path class="cls-22" d="M35.68,51.75a1,1,0,1,0,1-1A1,1,0,0,0,35.68,51.75Z"/><path class="cls-21" d="M36.07,51.75a.59.59,0,1,0,.59-.59A.58.58,0,0,0,36.07,51.75Z"/><path class="cls-21" d="M32.46,51.38a2,2,0,0,0-2,2l0,6.18a1.23,1.23,0,0,1-1.23,1.23h-3.9a1.23,1.23,0,0,1-1.23-1.23v-5a1.94,1.94,0,0,0-1.94-1.94l-7.9,0v.73h7.4A1.68,1.68,0,0,1,23.31,55v4.53a2,2,0,0,0,2,2h3.9a2,2,0,0,0,2-2l0-6.18a1.24,1.24,0,0,1,1.23-1.23h4.2v-.76Z"/></symbol></defs><title>officeAsset 5</title><g id="Layer_2" data-name="Layer 2"><g id="Layer_1-2" data-name="Layer 1"><use width="101.55" height="73.9" xlink:href="#New_Symbol_5"/></g></g></svg>