<svg xmlns="http://www.w3.org/2000/svg" xmlns:xlink="http://www.w3.org/1999/xlink" viewBox="0 0 98.11 74.69"><defs><style>.cls-1,.cls-2{fill:#d8d8d8;}.cls-2,.cls-5,.cls-6{mix-blend-mode:multiply;}.cls-3{fill:#898989;}.cls-4,.cls-5,.cls-6{fill:#eaebe6;}.cls-6{opacity:0.32;}.cls-7{fill:#a8a8a8;}.cls-8{fill:#717171;}.cls-9{fill:#90beda;}.cls-10{fill:#b7d4e7;}.cls-11{fill:#006aaa;}.cls-12{fill:#332c33;}.cls-13{fill:#9d9d9d;}.cls-14{fill:#ffcb00;}</style><symbol id="New_Symbol_8" data-name="New Symbol 8" viewBox="0 0 98.11 74.69"><polygon class="cls-1" points="65.24 74.69 60.49 74.69 61.88 35.66 63.84 35.66 65.24 74.69"/><polygon class="cls-2" points="63.98 39.49 63.84 35.66 61.88 35.66 61.69 41.12 63.98 39.49"/><circle class="cls-3" cx="62.86" cy="35.02" r="1.46"/><path class="cls-4" d="M63.69,16a1.36,1.36,0,0,0-.76-1.12h0s0,0,0,0c-.42,1-1.89,16-2.07,17.76a.34.34,0,0,0,.11.29L62.06,34a.36.36,0,0,0,.26.11H63.4a.36.36,0,0,0,.26-.11l1.13-1.14a.38.38,0,0,0,.1-.29C64.77,30.94,63.79,17.11,63.69,16Z"/><path class="cls-4" d="M46,43.88a1.33,1.33,0,0,0-.59,1.21v0c1.1-.15,14.79-6.35,16.41-7.09a.37.37,0,0,0,.2-.24l.43-1.54a.39.39,0,0,0,0-.28l-.54-.93a.38.38,0,0,0-.23-.18l-1.55-.4a.36.36,0,0,0-.3.05C58.4,35.47,46.92,43.24,46,43.88Z"/><path class="cls-4" d="M79.32,44.8a1.39,1.39,0,0,0,1.35-.14s0,0,0,0h0C80,43.78,67.51,35.43,66,34.44a.32.32,0,0,0-.3,0l-1.54.45A.39.39,0,0,0,64,35l-.51.95a.39.39,0,0,0,0,.28l.47,1.53a.36.36,0,0,0,.2.23C65.64,38.71,78.3,44.36,79.32,44.8Z"/><path class="cls-5" d="M66,34.44a.32.32,0,0,0-.3,0l-1.42.41a1.49,1.49,0,0,0-.51-.9l1-1a.38.38,0,0,0,.1-.29c-.12-1.67-1.1-15.5-1.2-16.61a1.36,1.36,0,0,0-.76-1.12h0s0,0,0,0c-.42,1-1.89,16-2.07,17.76a.34.34,0,0,0,.11.29l1,1a1.45,1.45,0,0,0-.5.92l-1.34-.35a.36.36,0,0,0-.3.05c-1.39.94-12.87,8.71-13.78,9.35a1.33,1.33,0,0,0-.59,1.21v0c1.09-.15,14.68-6.3,16.39-7.08L60.49,74.69h4.75L63.92,37.83a.41.41,0,0,0,.18.19c1.54.69,14.2,6.34,15.22,6.78a1.39,1.39,0,0,0,1.35-.14s0,0,0,0h0C80,43.78,67.51,35.43,66,34.44Z"/><polygon class="cls-1" points="48.35 74.69 42.95 74.69 44.53 30.27 46.76 30.27 48.35 74.69"/><polygon class="cls-2" points="46.92 34.64 46.76 30.27 44.53 30.27 44.31 36.49 46.92 34.64"/><circle class="cls-3" cx="45.65" cy="29.55" r="1.66"/><path class="cls-4" d="M46.59,7.91a1.55,1.55,0,0,0-.86-1.28h0s0,0,0,0c-.48,1.17-2.16,18.19-2.35,20.2a.42.42,0,0,0,.12.34l1.27,1.3a.42.42,0,0,0,.3.12h1.23a.42.42,0,0,0,.3-.12l1.28-1.3a.45.45,0,0,0,.12-.33C47.82,24.91,46.7,9.17,46.59,7.91Z"/><path class="cls-4" d="M26.47,39.63A1.54,1.54,0,0,0,25.8,41v0s0,0,0,0C27,40.9,42.61,33.84,44.46,33a.39.39,0,0,0,.23-.27L45.18,31a.4.4,0,0,0,0-.32l-.61-1.06a.41.41,0,0,0-.26-.2l-1.76-.46a.41.41,0,0,0-.34.06C40.57,30.06,27.5,38.9,26.47,39.63Z"/><path class="cls-4" d="M64.38,40.67a1.56,1.56,0,0,0,1.53-.16h0c-.81-1-15-10.47-16.71-11.6a.42.42,0,0,0-.36-.05l-1.74.51a.44.44,0,0,0-.25.21l-.58,1.08a.45.45,0,0,0,0,.32l.54,1.75a.41.41,0,0,0,.23.25C48.8,33.74,63.21,40.18,64.38,40.67Z"/><path class="cls-6" d="M49.25,28.89a.42.42,0,0,0-.36-.05l-1.61.48a1.63,1.63,0,0,0-.57-1l1.13-1.15a.45.45,0,0,0,.12-.33c-.14-1.9-1.26-17.64-1.37-18.9a1.55,1.55,0,0,0-.86-1.28h0s0,0,0,0c-.48,1.17-2.16,18.19-2.35,20.2a.42.42,0,0,0,.12.34l1.13,1.15a1.59,1.59,0,0,0-.57,1l-1.52-.4a.41.41,0,0,0-.34.06C40.57,30.06,27.5,38.9,26.47,39.63A1.54,1.54,0,0,0,25.8,41v0s0,0,0,0C27,40.9,42.49,33.89,44.44,33l-1.5,41.68h5.41l-1.5-41.95a.38.38,0,0,0,.21.22c1.74.78,16.15,7.22,17.32,7.71a1.56,1.56,0,0,0,1.53-.16h0C65.15,39.52,50.93,30,49.25,28.89Z"/><polygon class="cls-1" points="24.75 74.69 18.82 74.69 20.56 25.97 23.01 25.97 24.75 74.69"/><polygon class="cls-2" points="23.18 30.76 23.01 25.97 20.56 25.97 20.32 32.79 23.18 30.76"/><circle class="cls-3" cx="21.79" cy="25.18" r="1.82"/><path class="cls-4" d="M22.82,1.43A1.7,1.7,0,0,0,21.88,0h0s0,0,0,0c-.53,1.28-2.36,20-2.58,22.16a.5.5,0,0,0,.13.37L20.78,24a.47.47,0,0,0,.33.14h1.35a.47.47,0,0,0,.33-.14l1.4-1.42a.49.49,0,0,0,.13-.36C24.17,20.08,22.94,2.82,22.82,1.43Z"/><path class="cls-4" d="M.75,36.23A1.7,1.7,0,0,0,0,37.75v0s0,0,0,0c1.37-.18,18.46-7.92,20.48-8.84a.48.48,0,0,0,.26-.3l.53-1.92a.5.5,0,0,0-.05-.36l-.67-1.16a.44.44,0,0,0-.28-.22l-1.94-.5a.44.44,0,0,0-.37.06C16.22,25.73,1.88,35.43.75,36.23Z"/><path class="cls-4" d="M42.33,37.38A1.74,1.74,0,0,0,44,37.2l0,0h0c-.88-1.07-16.48-11.49-18.33-12.73a.46.46,0,0,0-.38-.05L23.43,25a.49.49,0,0,0-.27.22l-.64,1.19a.5.5,0,0,0,0,.36l.59,1.91a.45.45,0,0,0,.26.28C25.25,29.77,41.05,36.83,42.33,37.38Z"/><rect class="cls-7" x="92.46" y="43.71" width="1.51" height="30.98"/><rect class="cls-8" x="91.57" y="73.44" width="3.29" height="1.25"/><rect class="cls-7" x="67.03" y="50.59" width="1.51" height="24.1"/><rect class="cls-8" x="66.14" y="73.44" width="3.29" height="1.25"/><rect class="cls-7" x="54.19" y="57.36" width="1.51" height="17.33"/><rect class="cls-8" x="53.3" y="73.44" width="3.29" height="1.25"/><rect class="cls-7" x="75.78" y="57.36" width="1.51" height="17.33"/><rect class="cls-8" x="74.89" y="73.44" width="3.29" height="1.25"/><path class="cls-9" d="M66.47,41.48,49.92,59.05a.68.68,0,0,0,.49,1.14H79.06a3.25,3.25,0,0,0,2.32-1L97.93,41.61a.67.67,0,0,0-.49-1.13H68.79A3.19,3.19,0,0,0,66.47,41.48Z"/><path class="cls-10" d="M86.92,41.3a2.72,2.72,0,0,1-.81.84l-.17.21a13.41,13.41,0,0,1-1.83,1.73,1.55,1.55,0,0,1-.53.31c-1.12,1.47-2.41,2.79-3.55,4.22a40.1,40.1,0,0,1-3.57,3.67,7.09,7.09,0,0,1-.93,1,23.89,23.89,0,0,0-1.62,1.81c-.18.19-.46.42-.71.64s-.22.23-.34.34l-.06.08c-.29.4-.59.82-.91,1.18a14.67,14.67,0,0,1-1.09,1.13h0c-.1.1-.91.84-.77.6,0,.06-.07.12-.11.17H80.07L96.76,41.34Z"/><path class="cls-9" d="M86.92,41.3a2.72,2.72,0,0,1-.81.84l-.17.21a13.41,13.41,0,0,1-1.83,1.73,1.55,1.55,0,0,1-.53.31c-1.12,1.47-2.41,2.79-3.55,4.22-.33.41-.68.8-1,1.18h0l8-8.49Z"/><path class="cls-9" d="M78.1,50.7l-1.63,1.58a8.6,8.6,0,0,1-.94,1,23.89,23.89,0,0,0-1.62,1.81c-.18.19-.46.42-.71.64s-.22.23-.34.34l-.06.08c-.29.4-.59.82-.91,1.18a14.67,14.67,0,0,1-1.09,1.13h0c-.1.1-.91.84-.77.6,0,.06-.07.12-.11.17h.33l8-8.51Z"/><polygon class="cls-9" points="88.81 49.8 96.76 41.34 87.75 41.31 79.77 49.79 88.81 49.8"/><polygon class="cls-11" points="88.76 49.44 96.03 41.7 87.8 41.67 80.51 49.42 88.76 49.44"/><polygon class="cls-9" points="82.57 49.59 90.24 41.44 89.93 41.44 82.26 49.59 82.57 49.59"/><polygon class="cls-9" points="84.6 49.59 92.26 41.44 91.95 41.44 84.28 49.59 84.6 49.59"/><path class="cls-9" d="M94.45,43.71l.37-.4-8.65,0a2.92,2.92,0,0,1-.4.39Z"/><path class="cls-9" d="M92.43,45.76l.38-.39-8.67,0a2.12,2.12,0,0,1-.39.4Z"/><path class="cls-9" d="M90.41,47.82l.38-.4-8.67,0a2.48,2.48,0,0,1-.39.4Z"/><polygon class="cls-9" points="86.62 49.59 94.28 41.45 93.96 41.45 86.31 49.59 86.62 49.59"/><polygon class="cls-9" points="80.07 59.21 88.05 50.71 79.01 50.7 71 59.21 80.07 59.21"/><polygon class="cls-11" points="80.02 58.85 87.32 51.08 79.06 51.07 71.74 58.84 80.02 58.85"/><polygon class="cls-9" points="73.81 59.01 81.5 50.83 81.19 50.83 73.5 59.01 73.81 59.01"/><polygon class="cls-9" points="75.84 59.01 83.53 50.83 83.22 50.83 75.53 59.01 75.84 59.01"/><path class="cls-9" d="M85.73,53.1l.37-.4H77.42a3.78,3.78,0,0,1-.4.4Z"/><path class="cls-9" d="M83.7,55.16l.38-.4H75.39a2.52,2.52,0,0,1-.4.4Z"/><path class="cls-9" d="M81.68,57.23l.38-.41h-8.7a3.78,3.78,0,0,1-.4.4Z"/><polygon class="cls-9" points="77.87 59.01 85.56 50.83 85.24 50.83 77.56 59.01 77.87 59.01"/><polygon class="cls-10" points="68.2 41.24 51.33 59.21 70.3 59.21 87.06 41.3 68.2 41.24"/><polygon class="cls-9" points="69.26 49.77 77.27 41.27 68.2 41.24 60.16 49.75 69.26 49.77"/><polygon class="cls-11" points="69.21 49.4 76.53 41.64 68.25 41.61 60.9 49.39 69.21 49.4"/><polygon class="cls-9" points="62.98 49.55 70.7 41.38 70.39 41.37 62.66 49.55 62.98 49.55"/><polygon class="cls-9" points="65.02 49.56 72.74 41.38 72.42 41.38 64.7 49.56 65.02 49.56"/><path class="cls-9" d="M74.94,43.66l.37-.41-8.71,0a3,3,0,0,1-.4.4Z"/><path class="cls-9" d="M72.91,45.72l.37-.4-8.72,0a3,3,0,0,1-.39.4Z"/><path class="cls-9" d="M70.87,47.78l.38-.4-8.72,0a2.52,2.52,0,0,1-.4.4Z"/><polygon class="cls-9" points="67.06 49.56 74.77 41.39 74.45 41.39 66.74 49.56 67.06 49.56"/><polygon class="cls-9" points="60.45 59.21 68.49 50.68 59.4 50.67 51.33 59.21 60.45 59.21"/><polygon class="cls-11" points="60.4 58.84 67.75 51.05 59.44 51.04 52.07 58.84 60.4 58.84"/><polygon class="cls-9" points="54.15 59 61.9 50.8 61.59 50.8 53.83 59 54.15 59"/><polygon class="cls-9" points="56.2 59.01 63.94 50.8 63.63 50.8 55.88 59.01 56.2 59.01"/><path class="cls-9" d="M66.15,53.07l.38-.4H57.79a2.52,2.52,0,0,1-.4.4Z"/><path class="cls-9" d="M64.11,55.14l.38-.4H55.74a2.6,2.6,0,0,1-.4.41Z"/><path class="cls-9" d="M62.07,57.22l.38-.41H53.7a3.78,3.78,0,0,1-.4.4Z"/><polygon class="cls-9" points="58.24 59.01 65.98 50.8 65.67 50.8 57.92 59.01 58.24 59.01"/><polygon class="cls-9" points="79.08 49.79 87.06 41.3 78.02 41.28 70.01 49.77 79.08 49.79"/><polygon class="cls-11" points="79.03 49.42 86.33 41.67 78.07 41.64 70.75 49.41 79.03 49.42"/><polygon class="cls-9" points="72.82 49.57 80.52 41.41 80.2 41.41 72.5 49.57 72.82 49.57"/><polygon class="cls-9" points="74.85 49.57 82.54 41.41 82.23 41.41 74.54 49.57 74.85 49.57"/><path class="cls-9" d="M84.74,43.68l.37-.4-8.68,0a3.78,3.78,0,0,1-.4.4Z"/><path class="cls-9" d="M82.71,45.74l.38-.4-8.69,0a3.78,3.78,0,0,1-.4.4Z"/><path class="cls-9" d="M80.69,47.8l.37-.4-8.69,0a2.52,2.52,0,0,1-.4.4Z"/><polygon class="cls-9" points="76.88 49.58 84.57 41.42 84.25 41.42 76.57 49.58 76.88 49.58"/><polygon class="cls-9" points="70.3 59.21 78.31 50.7 69.25 50.69 61.21 59.21 70.3 59.21"/><polygon class="cls-11" points="70.26 58.84 77.58 51.06 69.29 51.05 61.95 58.84 70.26 58.84"/><polygon class="cls-9" points="64.02 59.01 71.75 50.81 71.43 50.81 63.71 59.01 64.02 59.01"/><polygon class="cls-9" points="66.06 59.01 73.78 50.81 73.47 50.81 65.75 59.01 66.06 59.01"/><path class="cls-9" d="M76,53.09l.38-.41H67.65a3.12,3.12,0,0,1-.4.41Z"/><path class="cls-9" d="M74,55.15l.38-.4H65.61a2.6,2.6,0,0,1-.4.41Z"/><path class="cls-9" d="M71.92,57.22l.38-.4H63.57a2.6,2.6,0,0,1-.4.41Z"/><polygon class="cls-9" points="68.1 59.01 75.81 50.82 75.5 50.82 67.78 59.01 68.1 59.01"/><path class="cls-12" d="M16.88,74H8.94V53.39a3.93,3.93,0,0,1,3.93-3.93H13a3.93,3.93,0,0,1,3.93,3.93Z"/><rect class="cls-13" x="8.06" y="72.78" width="9.7" height="1.91"/><circle class="cls-14" cx="12.91" cy="59.79" r="2.6"/><polygon class="cls-12" points="12.51 59.79 13.63 58.21 12.64 58.21 11.93 60.33 13.3 59.95 12.88 60.93 12.7 60.68 12.67 61.6 13.33 60.97 13.03 61 14.12 59.33 12.51 59.79"/><path class="cls-12" d="M31,74H23V53.39A3.93,3.93,0,0,1,27,49.46H27A3.93,3.93,0,0,1,31,53.39Z"/><rect class="cls-13" x="22.14" y="72.78" width="9.7" height="1.91"/><circle class="cls-14" cx="27" cy="59.79" r="2.6"/><polygon class="cls-12" points="26.6 59.79 27.71 58.21 26.73 58.21 26.02 60.33 27.39 59.95 26.96 60.93 26.79 60.68 26.75 61.6 27.42 60.97 27.12 61 28.2 59.33 26.6 59.79"/></symbol></defs><title>officeAsset 10</title><g id="Layer_2" data-name="Layer 2"><g id="Layer_1-2" data-name="Layer 1"><use width="98.11" height="74.69" xlink:href="#New_Symbol_8"/></g></g></svg>