<svg xmlns="http://www.w3.org/2000/svg" xmlns:xlink="http://www.w3.org/1999/xlink" viewBox="0 0 91.62 51.2"><defs><style>.cls-1{fill:#48c395;}.cls-2{fill:#9aa1ab;}.cls-3{fill:#332c33;}.cls-4{fill:#d0d1d3;}.cls-5{fill:#b7d4e7;}.cls-6{fill:#90beda;}.cls-7{fill:#006aaa;}.cls-8{fill:#242424;}.cls-9{fill:#221a22;}.cls-10{fill:#a8a8a8;}.cls-11{fill:#c0bec0;}.cls-12{fill:#5e585e;opacity:0.52;mix-blend-mode:screen;}.cls-13{fill:#eae9ea;}.cls-14{fill:#ddd;}.cls-15{fill:#f4f3f4;}.cls-16{fill:#9a9a9b;}.cls-17{fill:#ff476f;}.cls-18{fill:#8d8d8d;}.cls-19{fill:#d3d3d3;}.cls-20{fill:#ffcb00;}.cls-21{fill:#797979;}</style><symbol id="New_Symbol_11" data-name="New Symbol 11" viewBox="0 0 91.62 51.2"><ellipse class="cls-1" cx="45.81" cy="40.7" rx="45.81" ry="10.49"/><rect class="cls-2" x="58.56" y="21.34" width="1.62" height="17.75"/><rect class="cls-3" x="58.17" y="38.51" width="2.39" height="1.18"/><rect class="cls-2" x="22.79" y="21.34" width="1.62" height="17.75"/><rect class="cls-3" x="22.41" y="38.51" width="2.39" height="1.18"/><rect class="cls-2" x="12.82" y="0.59" width="1.62" height="34.3"/><rect class="cls-3" x="12.44" y="34.3" width="2.39" height="1.18"/><path class="cls-4" d="M12.53,0H45.69a3.11,3.11,0,0,1,2.52,1.08L64.42,21.72a1.74,1.74,0,0,1-1.21,2.68L22,26.09a2.87,2.87,0,0,1-3-1.7L10.28,1.8C10,1.1,11.42,0,12.53,0Z"/><path class="cls-5" d="M24.47,1a1.59,1.59,0,0,0,.51.87,1.45,1.45,0,0,0,.09.22,7.7,7.7,0,0,0,1.26,1.86,1.15,1.15,0,0,0,.5.34C27.4,5.93,28.3,7.45,29,9.16a27.3,27.3,0,0,0,2.69,4.62,5.17,5.17,0,0,0,.73,1.31,19.8,19.8,0,0,1,1.26,2.48,7.26,7.26,0,0,0,.64.9c.09.17.19.33.29.5l0,.1a15.12,15.12,0,0,0,.67,1.75,14.73,14.73,0,0,0,1,1.7h0c.1.14.88,1.28.8.91,0,.09,0,.18.07.27l-15.32.6L12.14,1Z"/><path class="cls-6" d="M24.47,1a1.59,1.59,0,0,0,.51.87,1.45,1.45,0,0,0,.09.22,7.7,7.7,0,0,0,1.26,1.86,1.15,1.15,0,0,0,.5.34C27.4,5.93,28.3,7.45,29,9.16a13.58,13.58,0,0,0,.68,1.44h0L24.37,1Z"/><path class="cls-6" d="M30.33,11.74c.43.68.89,1.35,1.33,2a5.17,5.17,0,0,0,.73,1.31,19.8,19.8,0,0,1,1.26,2.48,7.26,7.26,0,0,0,.64.9c.09.17.19.33.29.5l0,.1a15.12,15.12,0,0,0,.67,1.75,14.73,14.73,0,0,0,1,1.7h0c.1.14.88,1.28.8.91,0,.09,0,.18.07.27h-.47l-6.54-12Z"/><polygon class="cls-6" points="16.29 10.84 12.14 1.02 23.45 0.99 28.62 10.62 16.29 10.84"/><polygon class="cls-7" points="16.63 10.36 12.8 1.4 23.17 1.37 27.86 10.17 16.63 10.36"/><polygon class="cls-6" points="24.99 10.42 20.3 1.13 20.68 1.13 25.41 10.42 24.99 10.42"/><polygon class="cls-6" points="22.24 10.47 17.77 1.13 18.16 1.13 22.67 10.46 22.24 10.47"/><path class="cls-6" d="M13.34,3.59l-.19-.44,11.08-.07a1.57,1.57,0,0,0,.25.44Z"/><path class="cls-6" d="M14.44,5.92l-.2-.46,11.31-.11a1.6,1.6,0,0,0,.27.46Z"/><path class="cls-6" d="M15.59,8.37l-.2-.49,11.54-.15a2,2,0,0,0,.28.47Z"/><polygon class="cls-6" points="19.47 10.52 15.22 1.14 15.62 1.14 19.9 10.51 19.47 10.52"/><polygon class="cls-6" points="21.81 24.3 16.64 12.01 29.11 11.77 35.54 23.76 21.81 24.3"/><polygon class="cls-7" points="22.17 23.69 17.39 12.48 28.83 12.24 34.66 23.21 22.17 23.69"/><polygon class="cls-6" points="31.48 23.59 25.64 11.99 26.07 11.98 31.95 23.57 31.48 23.59"/><polygon class="cls-6" points="28.43 23.71 22.86 12.05 23.29 12.04 28.9 23.69 28.43 23.71"/><path class="cls-6" d="M18.11,15.2l-.23-.55,12.24-.29a1.85,1.85,0,0,0,.31.53Z"/><path class="cls-6" d="M19.46,18.11l-.24-.58,12.52-.35a2.23,2.23,0,0,0,.33.56Z"/><path class="cls-6" d="M20.89,21.17l-.26-.6,12.82-.43a2.4,2.4,0,0,0,.34.59Z"/><polygon class="cls-6" points="25.34 23.83 20.05 12.1 20.48 12.1 25.82 23.81 25.34 23.83"/><polygon class="cls-5" points="46.56 0.94 63.25 22.67 36.57 23.72 24.3 0.99 46.56 0.94"/><polygon class="cls-6" points="42.35 10.37 36.08 0.96 46.56 0.94 53.71 10.17 42.35 10.37"/><polygon class="cls-7" points="42.55 9.92 36.78 1.33 46.4 1.3 52.89 9.74 42.55 9.92"/><polygon class="cls-6" points="50.3 9.98 43.67 1.06 44.03 1.06 50.69 9.98 50.3 9.98"/><polygon class="cls-6" points="47.77 10.03 41.32 1.07 41.69 1.07 48.16 10.02 47.77 10.03"/><path class="cls-6" d="M37.83,3.43,37.54,3,47.8,3a2.32,2.32,0,0,0,.34.41Z"/><path class="cls-6" d="M39.43,5.67l-.3-.44,10.45-.1a2.22,2.22,0,0,0,.36.43Z"/><path class="cls-6" d="M41.1,8l-.31-.46,10.65-.14a2.38,2.38,0,0,0,.38.45Z"/><polygon class="cls-6" points="45.22 10.07 38.96 1.08 39.33 1.08 45.61 10.06 45.22 10.07"/><polygon class="cls-6" points="50.74 23.16 42.97 11.49 54.44 11.27 63.25 22.67 50.74 23.16"/><polygon class="cls-7" points="50.92 22.59 43.78 11.94 54.29 11.72 62.3 22.15 50.92 22.59"/><polygon class="cls-6" points="59.47 22.5 51.29 11.48 51.68 11.47 59.9 22.49 59.47 22.5"/><polygon class="cls-6" points="56.69 22.61 48.73 11.53 49.12 11.52 57.12 22.6 56.69 22.61"/><path class="cls-6" d="M45.11,14.53,44.76,14,56,13.74a3.09,3.09,0,0,0,.42.51Z"/><path class="cls-6" d="M47.07,17.3l-.37-.55,11.47-.33a3,3,0,0,0,.44.54Z"/><path class="cls-6" d="M49.13,20.2l-.38-.57,11.71-.39a3.67,3.67,0,0,0,.45.56Z"/><polygon class="cls-6" points="53.87 22.72 46.14 11.58 46.54 11.57 54.31 22.7 53.87 22.72"/><polygon class="cls-6" points="29.55 10.6 24.3 0.99 35.19 0.96 41.39 10.39 29.55 10.6"/><polygon class="cls-7" points="29.82 10.14 24.99 1.37 34.97 1.34 40.6 9.95 29.82 10.14"/><polygon class="cls-6" points="37.87 10.2 32.17 1.09 32.54 1.09 38.27 10.19 37.87 10.2"/><polygon class="cls-6" points="35.23 10.25 29.73 1.1 30.11 1.1 35.64 10.24 35.23 10.25"/><path class="cls-6" d="M25.79,3.51l-.24-.43L36.21,3a1.6,1.6,0,0,0,.3.42Z"/><path class="cls-6" d="M27.15,5.79l-.25-.45,10.87-.1a1.74,1.74,0,0,0,.31.44Z"/><path class="cls-6" d="M28.57,8.19l-.26-.48L39.4,7.57a2.15,2.15,0,0,0,.33.46Z"/><polygon class="cls-6" points="32.57 10.29 27.28 1.11 27.66 1.11 32.98 10.29 32.57 10.29"/><polygon class="cls-6" points="36.57 23.72 30.05 11.75 42 11.51 49.67 23.2 36.57 23.72"/><polygon class="cls-7" points="36.84 23.13 30.83 12.2 41.79 11.98 48.76 22.67 36.84 23.13"/><polygon class="cls-6" points="45.76 23.04 38.7 11.73 39.11 11.72 46.21 23.02 45.76 23.04"/><polygon class="cls-6" points="42.84 23.15 36.02 11.79 36.44 11.78 43.3 23.13 42.84 23.15"/><path class="cls-6" d="M31.86,14.86l-.29-.54L43.29,14a2.94,2.94,0,0,0,.37.53Z"/><path class="cls-6" d="M33.53,17.7l-.3-.57,12-.34a2.47,2.47,0,0,0,.39.55Z"/><path class="cls-6" d="M35.29,20.68,35,20.09l12.24-.41a3.16,3.16,0,0,0,.41.58Z"/><polygon class="cls-6" points="39.9 23.26 33.33 11.84 33.75 11.83 40.36 23.25 39.9 23.26"/><path class="cls-8" d="M80.88,42.66s1.05,1.67-.65,1.67H29.54c-1.09,0-1.59-1.79-.41-2.1S79.49,42.19,80.88,42.66Z"/><path class="cls-9" d="M79.93,42.66H62.75s3-10.94,9.35-9.3S80.41,38.42,79.93,42.66Z"/><path class="cls-9" d="M42.9,42.66H29.16s-.41-10.94,5.91-9.3S43.38,38.42,42.9,42.66Z"/><path class="cls-10" d="M28.56,42.66A43,43,0,0,1,28.91,32c.55-3,1.18-5.93,3.93-7.23,7.28-3.42,24.95-1.51,29.42,0s18.12,8.72,19,12.74a9.68,9.68,0,0,1-.38,5.16H78.56s1-6.29-7.12-6.29c0,0-6.15,0-6.15,6.29H40.57s.91-6.27-5.3-6.27c0,0-5.85-.25-5.31,6.27Z"/><path class="cls-3" d="M67.24,42.66a4.86,4.86,0,1,0,4.86-4.85A4.86,4.86,0,0,0,67.24,42.66Z"/><circle class="cls-11" cx="72.1" cy="42.66" r="2.98"/><path class="cls-3" d="M30.41,42.66a4.86,4.86,0,1,0,4.86-4.85A4.86,4.86,0,0,0,30.41,42.66Z"/><circle class="cls-11" cx="35.27" cy="42.66" r="2.98"/><path class="cls-3" d="M72.1,32.26S63.4,26.88,59.18,26s-20.59-1.59-23.12,0a7.16,7.16,0,0,0-2.87,4.86Z"/><path class="cls-12" d="M33.92,28.49A6,6,0,0,1,36.06,26c2.53-1.59,18.91-.88,23.12,0a36.57,36.57,0,0,1,8,3.42c-1.21,0-6.68-1.27-7.85-1.47C44.71,25.57,34.52,28.36,33.92,28.49Z"/><path class="cls-3" d="M77,33.09a13.64,13.64,0,0,1,1.27.71,22.07,22.07,0,0,1,1.93,1.87s-3.07.21-4.4-.7a1.77,1.77,0,0,1-.69-1.61.66.66,0,0,1,.77-.62A4.75,4.75,0,0,1,77,33.09Z"/><path class="cls-13" d="M77.5,33.34a7.77,7.77,0,0,1,.91.51,16.32,16.32,0,0,1,1.38,1.34,6.57,6.57,0,0,1-3.15-.5,1.3,1.3,0,0,1-.5-1.16.48.48,0,0,1,.56-.44A3.3,3.3,0,0,1,77.5,33.34Z"/><polygon class="cls-10" points="50.32 24.74 51.9 31.81 50.32 31.81 49.13 24.74 50.32 24.74"/><rect class="cls-3" x="35.27" y="32.28" width="3.58" height="0.78"/><rect class="cls-3" x="53.88" y="32.67" width="3.58" height="0.78"/><path class="cls-14" d="M69.12,42.6a3,3,0,1,0,3-2.92A3,3,0,0,0,69.12,42.6Z"/><path class="cls-15" d="M70.84,42.68a1.33,1.33,0,1,0,1.35-1.3A1.33,1.33,0,0,0,70.84,42.68Z"/><path class="cls-16" d="M73.19,41.51l-.54-1.44a2.64,2.64,0,0,1,1.95,1.8Z"/><path class="cls-16" d="M71.38,41.33l-1.62.07A2.62,2.62,0,0,1,72.13,40h.07Z"/><path class="cls-16" d="M73.57,43.29l1.13-.9a1.51,1.51,0,0,1,0,.3,2.59,2.59,0,0,1-1,2Z"/><path class="cls-16" d="M70.64,43l-.42,1.5a2.64,2.64,0,0,1-.77-1.91,2.84,2.84,0,0,1,.15-.83Z"/><path class="cls-16" d="M72,44.21l1.21.8a2.56,2.56,0,0,1-1.18.26,2.68,2.68,0,0,1-1.47-.48Z"/><path class="cls-14" d="M32.29,42.6a3,3,0,1,0,3-2.91A3,3,0,0,0,32.29,42.6Z"/><path class="cls-15" d="M34,42.68a1.32,1.32,0,1,0,1.35-1.29A1.31,1.31,0,0,0,34,42.68Z"/><path class="cls-16" d="M36.35,41.52l-.54-1.45a2.65,2.65,0,0,1,2,1.8Z"/><path class="cls-16" d="M34.54,41.34l-1.61.07A2.63,2.63,0,0,1,35.3,40h.07Z"/><path class="cls-16" d="M36.74,43.3l1.13-.9a2.81,2.81,0,0,1,0,.29,2.61,2.61,0,0,1-1,2.05Z"/><path class="cls-16" d="M33.81,43l-.42,1.51a2.65,2.65,0,0,1-.77-1.92,2.54,2.54,0,0,1,.15-.83Z"/><path class="cls-16" d="M35.17,44.21l1.21.81a2.61,2.61,0,0,1-1.18.25,2.58,2.58,0,0,1-1.47-.48Z"/><path class="cls-17" d="M28.61,34.3a12.91,12.91,0,0,0-.18,1.88c.17.3,2.47,0,2.47,0s1.7-1.77,1.52-2.06S28.61,34.3,28.61,34.3Z"/><path class="cls-18" d="M61.81,42.1a2.47,2.47,0,0,0,2.41-2l1.46-6.89-.54-.11L63.69,40a1.93,1.93,0,0,1-1.93,1.52l-17.34-.39A1.55,1.55,0,0,1,43,40.07c-.62-2-2.45-5.3-7.73-5.3h-.17a1.6,1.6,0,0,1-1.57-1.48c0-.53,0-1,0-1.48h-.55c0,.47,0,1,0,1.52a2.15,2.15,0,0,0,2.12,2c5.07-.08,6.79,3,7.37,4.91a2.11,2.11,0,0,0,2,1.48l17.34.39Z"/><path class="cls-3" d="M11,39H4.49V22.06a3.23,3.23,0,0,1,3.23-3.22h.06A3.22,3.22,0,0,1,11,22.06Z"/><rect class="cls-19" x="3.77" y="37.95" width="7.95" height="1.57"/><path class="cls-20" d="M9.88,27.31a2.13,2.13,0,1,1-2.13-2.14A2.13,2.13,0,0,1,9.88,27.31Z"/><polygon class="cls-3" points="7.42 27.31 8.34 26.01 7.53 26.01 6.95 27.75 8.07 27.43 7.72 28.24 7.58 28.04 7.55 28.79 8.1 28.27 7.85 28.3 8.74 26.93 7.42 27.31"/><path class="cls-21" d="M30.35,32.34a.89.89,0,1,0,.88-.89A.88.88,0,0,0,30.35,32.34Z"/><path class="cls-20" d="M30.7,32.34a.54.54,0,0,0,1.07,0,.54.54,0,0,0-1.07,0Z"/><path class="cls-20" d="M27.44,32a1.8,1.8,0,0,0-1.8,1.79l0,5.58a1.11,1.11,0,0,1-1.11,1.11H21a1.11,1.11,0,0,1-1.11-1.11V34.89a1.76,1.76,0,0,0-1.74-1.76H11v.66h6.68a1.52,1.52,0,0,1,1.51,1.51v4.09a1.81,1.81,0,0,0,1.8,1.8h3.52a1.81,1.81,0,0,0,1.8-1.8l0-5.58a1.11,1.11,0,0,1,1.11-1.1h3.79V32Z"/></symbol></defs><title>officeAsset 12</title><g id="Layer_2" data-name="Layer 2"><g id="Layer_1-2" data-name="Layer 1"><use width="91.62" height="51.2" xlink:href="#New_Symbol_11"/></g></g></svg>