<svg xmlns="http://www.w3.org/2000/svg" xmlns:xlink="http://www.w3.org/1999/xlink" viewBox="0 0 78.62 74.29"><defs><style>.cls-1{fill:#fdba79;}.cls-2{fill:#465c85;}.cls-3{fill:#332c33;}.cls-4{fill:#d8d8d8;}.cls-5{fill:#d6d6d6;}.cls-6{fill:#242424;}.cls-7{fill:#221a22;}.cls-8{fill:#c0bec0;}.cls-9{fill:#a8a8a8;}.cls-10{fill:#eae9ea;}.cls-11{fill:#c9c9c9;}.cls-12{fill:#00ffd5;}</style><symbol id="New_Symbol_13" data-name="New Symbol 13" viewBox="0 0 78.62 74.29"><path class="cls-1" d="M50.52,32.75c1.08-.95,1.41-2.34.75-3.09l0,0c-.67-.75-2.08-.58-3.16.37l-6,5.32c-.05-.11-.1-.24-.16-.35l8.6-7.66c1.25-1.1,1.63-2.7.86-3.57l0,0c-.77-.87-2.4-.68-3.65.42l-7.77,6.92,0-.06-.21-.39,1-.89.06-.06,9.12-8.1c1.24-1.1,1.63-2.7.86-3.57l0,0c-.77-.87-2.41-.68-3.65.42l-8.14,7.24h0l-1.27,1.12c-.06-.15-.1-.3-.16-.45l.36-.31,8.6-7.62c1.24-1.1,1.63-2.7.86-3.57l0,0c-.77-.87-2.41-.68-3.65.42L26.91,28.1c-3.13,2.49-7.85,11.2-7.85,11.2L13.89,44l8.77,9.76,4.73-4.25A85.93,85.93,0,0,0,36,45.64l8.18-7.23Z"/><polygon class="cls-2" points="9.42 65.45 0 54.22 17.02 40.16 26.43 51.38 9.42 65.45"/><path class="cls-3" d="M54.21,0H30.77A.79.79,0,0,0,30,.83V43.25a.79.79,0,0,0,.75.82H54.21a.79.79,0,0,0,.75-.82V.83A.79.79,0,0,0,54.21,0Z"/><rect class="cls-4" x="32.29" y="4.58" width="20.4" height="33.64"/><path class="cls-5" d="M44.59,2.13a.29.29,0,1,0,.29.29A.29.29,0,0,0,44.59,2.13Z"/><path class="cls-5" d="M43.35,40.3H41.63a.22.22,0,0,0-.19.24v.35a.21.21,0,0,0,.19.23h1.72a.21.21,0,0,0,.18-.23v-.35C43.53,40.4,43.45,40.3,43.35,40.3Z"/><path class="cls-5" d="M43.26,2.13h-2.8a.33.33,0,0,0-.36.29.33.33,0,0,0,.36.29h2.8a.33.33,0,0,0,.36-.29A.33.33,0,0,0,43.26,2.13Z"/><path class="cls-1" d="M34,18.33c1.85,3.13-2.14,8.7-3.85,11.08-1.09,1.51-3.27,5.71-3.27,5.71-2.09,1.57-7.46,3.48-7.46,3.48s2.81-7.91,4-10.52c.14-.2.26-.4.4-.6l9-9.83S33.37,17.23,34,18.33Z"/><path d="M35.73,9.68a.54.54,0,0,0,.53-.38l.36.13a.9.9,0,0,1-.34.44,1.1,1.1,0,0,1-.55.14A1,1,0,0,1,35,9.74,1.06,1.06,0,0,1,34.71,9,1,1,0,0,1,35,8.21a1,1,0,0,1,.74-.27,1.07,1.07,0,0,1,.57.14.8.8,0,0,1,.32.42l-.37.1A.5.5,0,0,0,36,8.36a.57.57,0,0,0-.32-.09.54.54,0,0,0-.44.18.79.79,0,0,0-.15.52.84.84,0,0,0,.16.53A.53.53,0,0,0,35.73,9.68Z"/><path d="M38.2,10V9.12h-.88V10H36.9V8h.42v.8h.88V8h.42v2Z"/><path d="M40.43,10l-.18-.51h-.76l-.18.51h-.42l.73-2h.5l.73,2Zm-.56-1.7v0l0,.12s-.1.28-.25.72h.58L40,8.57l-.06-.19Z"/><path d="M42.5,10,42,9.22h-.5V10h-.42V8h1a.88.88,0,0,1,.55.15.6.6,0,0,1,.08.81.58.58,0,0,1-.33.21L43,10Zm0-1.39c0-.2-.12-.29-.37-.29h-.54v.59h.56a.4.4,0,0,0,.26-.08A.28.28,0,0,0,42.45,8.59Z"/><path d="M44.19,9.68a1.13,1.13,0,0,0,.32,0,.67.67,0,0,0,.24-.12V9.23h-.5V8.92h.88v.74a1,1,0,0,1-.41.26,1.65,1.65,0,0,1-.54.09,1,1,0,0,1-.76-.27A1.09,1.09,0,0,1,43.16,9a1.09,1.09,0,0,1,.26-.77,1.09,1.09,0,0,1,.77-.26.85.85,0,0,1,.9.52l-.39.12a.45.45,0,0,0-.2-.23.62.62,0,0,0-.31-.08.55.55,0,0,0-.45.18.74.74,0,0,0-.16.52.81.81,0,0,0,.16.52A.55.55,0,0,0,44.19,9.68Z"/><path d="M45.51,10V8h.42v2Z"/><path d="M47.55,10l-.88-1.55a2.62,2.62,0,0,1,0,.37V10h-.37V8h.48l.89,1.56a2.68,2.68,0,0,1,0-.39V8H48v2Z"/><path d="M49.39,9.68a1.19,1.19,0,0,0,.32,0,.55.55,0,0,0,.23-.12V9.23h-.49V8.92h.88v.74a1,1,0,0,1-.42.26,1.6,1.6,0,0,1-.53.09,1,1,0,0,1-.76-.27A1,1,0,0,1,48.36,9a1.09,1.09,0,0,1,.26-.77,1.07,1.07,0,0,1,.77-.26.85.85,0,0,1,.9.52l-.39.12a.45.45,0,0,0-.2-.23.62.62,0,0,0-.31-.08.55.55,0,0,0-.45.18.74.74,0,0,0-.16.52.75.75,0,0,0,.16.52A.55.55,0,0,0,49.39,9.68Z"/><path class="cls-6" d="M36.48,19.25s-.23.38.15.38H48c.25,0,.36-.4.09-.47S36.8,19.15,36.48,19.25Z"/><path class="cls-7" d="M36.7,19.25h3.86s-.68-2.46-2.1-2.09S36.59,18.3,36.7,19.25Z"/><path class="cls-7" d="M45,19.25h3.1s.09-2.46-1.33-2.09S44.93,18.3,45,19.25Z"/><path class="cls-3" d="M48.26,19.25a9.25,9.25,0,0,0-.08-2.4c-.12-.67-.26-1.33-.88-1.63-1.64-.77-5.62-.34-6.62,0s-4.08,2-4.29,2.87a2.12,2.12,0,0,0,.09,1.16H37s-.23-1.41,1.6-1.41A1.36,1.36,0,0,1,40,19.25h5.57a1.21,1.21,0,1,1,2.39,0Z"/><path class="cls-3" d="M39.55,19.25a1.09,1.09,0,1,1-1.09-1.09A1.09,1.09,0,0,1,39.55,19.25Z"/><path class="cls-8" d="M39.13,19.25a.67.67,0,1,1-.67-.67A.67.67,0,0,1,39.13,19.25Z"/><path class="cls-3" d="M47.85,19.25a1.1,1.1,0,1,1-1.1-1.09A1.1,1.1,0,0,1,47.85,19.25Z"/><path class="cls-8" d="M47.42,19.25a.67.67,0,1,1-.67-.67A.67.67,0,0,1,47.42,19.25Z"/><path class="cls-9" d="M38.46,16.91a14.22,14.22,0,0,1,2.91-1.41c1-.19,4.64-.35,5.2,0a1.62,1.62,0,0,1,.65,1.1Z"/><path class="cls-10" d="M37.24,17.16a1.46,1.46,0,0,0-.2.11,3,3,0,0,0-.31.3,1.43,1.43,0,0,0,.71-.11.29.29,0,0,0,.11-.26.11.11,0,0,0-.12-.1Z"/><polygon class="cls-3" points="43.36 15.22 43.01 16.81 43.36 16.81 43.63 15.22 43.36 15.22"/><rect class="cls-3" x="45.95" y="16.92" width="0.81" height="0.18"/><rect class="cls-3" x="41.76" y="17.01" width="0.81" height="0.18"/><path class="cls-11" d="M48.25,17.37a2.74,2.74,0,0,1,0,.43c0,.06-.55,0-.55,0s-.39-.4-.35-.47A3.43,3.43,0,0,1,48.25,17.37Z"/><rect x="34.54" y="29.8" width="15.2" height="3.02" rx="1.5"/><path class="cls-12" d="M43.33,30.22h-7A1.23,1.23,0,0,0,35,31.3v0a1.23,1.23,0,0,0,1.34,1.08h7Z"/><path class="cls-1" d="M70.62,50.89c0-.67.82-4.79.58-5.42L66.81,33.88a1.75,1.75,0,0,0-2.17-1.17h0a1.5,1.5,0,0,0-1.09,1.79l-.34.07-.33-.89a1.85,1.85,0,0,0-2.37-1.12h0a1.71,1.71,0,0,0-1,2.41L59,35,58.62,34a1.86,1.86,0,0,0-2.38-1.11h0a1.86,1.86,0,0,0-1.05,2.42l.1.25h-.42l-3.7-9.74c-.51-1.36-1.69-2.16-2.64-1.81l0,0c-.95.36-1.3,1.75-.79,3.1L54.47,45a2.05,2.05,0,0,1-.15.44c-.07-.19-.14-.37-.21-.57-2.35-6.47-4.56-7.28-5.73-7-1,.21-.74.87-.74.87l4.52,11.39.48.65a54.1,54.1,0,0,0,7.11,3.82L62,60.18l10.64-4.13Z"/><polygon class="cls-2" points="78.62 69.62 66.57 74.29 60.1 57.22 72.14 52.55 78.62 69.62"/><path class="cls-3" d="M37.34,13.29H37A.13.13,0,1,1,37,13h.32a.13.13,0,0,1,.13.13A.13.13,0,0,1,37.34,13.29Z"/><path class="cls-3" d="M36.48,13.29h-.54a.13.13,0,1,1,0-.25h.54a.13.13,0,1,1,0,.25Z"/><path class="cls-3" d="M35.08,13.58a.13.13,0,0,1-.13-.13V13h.45a.13.13,0,1,1,0,.25h-.18v.16A.13.13,0,0,1,35.08,13.58Z"/><path class="cls-3" d="M35.08,21.8a.13.13,0,0,1-.13-.13v-.58a.13.13,0,0,1,.13-.13.13.13,0,0,1,.14.13v.58A.13.13,0,0,1,35.08,21.8Zm0-1.18A.12.12,0,0,1,35,20.5v-.59a.12.12,0,0,1,.13-.12.13.13,0,0,1,.14.12v.59A.13.13,0,0,1,35.08,20.62Zm0-1.17a.13.13,0,0,1-.13-.12v-.59a.13.13,0,0,1,.13-.13.13.13,0,0,1,.14.13v.59A.13.13,0,0,1,35.08,19.45Zm0-1.18a.12.12,0,0,1-.13-.12v-.59a.13.13,0,0,1,.13-.12.13.13,0,0,1,.14.12v.59A.13.13,0,0,1,35.08,18.27Zm0-1.17A.13.13,0,0,1,35,17v-.59a.12.12,0,0,1,.13-.12.13.13,0,0,1,.14.12V17A.13.13,0,0,1,35.08,17.1Zm0-1.18A.12.12,0,0,1,35,15.8v-.59a.13.13,0,0,1,.13-.12.13.13,0,0,1,.14.12v.59A.13.13,0,0,1,35.08,15.92Zm0-1.17a.12.12,0,0,1-.13-.12V14a.12.12,0,0,1,.13-.12.13.13,0,0,1,.14.12v.59A.13.13,0,0,1,35.08,14.75Z"/><path class="cls-3" d="M35.4,22.67H35v-.41a.12.12,0,0,1,.13-.12.13.13,0,0,1,.14.12v.17h.18a.12.12,0,1,1,0,.24Z"/><path class="cls-3" d="M36.48,22.67h-.54a.12.12,0,1,1,0-.24h.54a.12.12,0,1,1,0,.24Z"/><path class="cls-3" d="M37.34,22.67H37a.12.12,0,1,1,0-.24h.32a.12.12,0,1,1,0,.24Z"/><path class="cls-3" d="M47.91,13.29h.32a.13.13,0,1,0,0-.25h-.32a.13.13,0,0,0-.13.13A.13.13,0,0,0,47.91,13.29Z"/><path class="cls-3" d="M48.77,13.29h.54a.13.13,0,1,0,0-.25h-.54a.13.13,0,1,0,0,.25Z"/><path class="cls-3" d="M50.17,13.58a.13.13,0,0,0,.13-.13V13h-.45a.13.13,0,1,0,0,.25H50v.16A.13.13,0,0,0,50.17,13.58Z"/><path class="cls-3" d="M50,21.67v-.58a.13.13,0,0,1,.14-.13.13.13,0,0,1,.13.13v.58a.13.13,0,0,1-.13.13A.13.13,0,0,1,50,21.67Zm0-1.17v-.59a.13.13,0,0,1,.14-.12.12.12,0,0,1,.13.12v.59a.12.12,0,0,1-.13.12A.13.13,0,0,1,50,20.5Zm0-1.17v-.59a.13.13,0,0,1,.14-.13.13.13,0,0,1,.13.13v.59a.13.13,0,0,1-.13.12A.13.13,0,0,1,50,19.33Zm0-1.18v-.59a.13.13,0,0,1,.14-.12.13.13,0,0,1,.13.12v.59a.12.12,0,0,1-.13.12A.13.13,0,0,1,50,18.15ZM50,17v-.59a.13.13,0,0,1,.14-.12.12.12,0,0,1,.13.12V17a.13.13,0,0,1-.13.12A.13.13,0,0,1,50,17Zm0-1.18v-.59a.13.13,0,0,1,.14-.12.13.13,0,0,1,.13.12v.59a.12.12,0,0,1-.13.12A.13.13,0,0,1,50,15.8Zm0-1.17V14a.13.13,0,0,1,.14-.12.12.12,0,0,1,.13.12v.59a.12.12,0,0,1-.13.12A.13.13,0,0,1,50,14.63Z"/><path class="cls-3" d="M49.85,22.67h.45v-.41a.12.12,0,0,0-.13-.12.13.13,0,0,0-.14.12v.17h-.18a.12.12,0,1,0,0,.24Z"/><path class="cls-3" d="M48.77,22.67h.54a.12.12,0,1,0,0-.24h-.54a.12.12,0,1,0,0,.24Z"/><path class="cls-3" d="M47.91,22.67h.32a.12.12,0,1,0,0-.24h-.32a.12.12,0,1,0,0,.24Z"/><path class="cls-3" d="M38.51,27.15a.94.94,0,0,1-.24.68.92.92,0,0,1-.67.25.89.89,0,0,1-.74-.34,1.59,1.59,0,0,1-.26-1,1.94,1.94,0,0,1,.26-1.1.88.88,0,0,1,.75-.37.86.86,0,0,1,.55.16.87.87,0,0,1,.28.47l-.51.07a.32.32,0,0,0-.33-.27.41.41,0,0,0-.35.22,1.44,1.44,0,0,0-.12.66.64.64,0,0,1,.24-.22.78.78,0,0,1,.35-.08.73.73,0,0,1,.58.24A.89.89,0,0,1,38.51,27.15Zm-.54,0a.52.52,0,0,0-.11-.35.38.38,0,0,0-.29-.13.37.37,0,0,0-.29.12.4.4,0,0,0-.11.3.72.72,0,0,0,.11.4.37.37,0,0,0,.3.15.32.32,0,0,0,.28-.13A.53.53,0,0,0,38,27.16Z"/><path class="cls-3" d="M38.79,28v-.38a1.81,1.81,0,0,1,.3-.46,5.92,5.92,0,0,1,.5-.46,2.51,2.51,0,0,0,.4-.38.47.47,0,0,0,.11-.3.31.31,0,0,0-.35-.35.37.37,0,0,0-.27.09.52.52,0,0,0-.12.28l-.54,0a.87.87,0,0,1,.28-.58,1,1,0,0,1,.64-.2,1,1,0,0,1,.68.2.72.72,0,0,1,.24.57.82.82,0,0,1-.08.35,1.26,1.26,0,0,1-.19.28,2,2,0,0,1-.26.24l-.28.23a1.79,1.79,0,0,0-.25.22.91.91,0,0,0-.17.23H40.7V28Z"/><path class="cls-3" d="M41.65,25.28a.61.61,0,0,1,.51.22,1.07,1.07,0,0,1,.17.65,1,1,0,0,1-.18.64.69.69,0,0,1-1,0,1,1,0,0,1-.17-.65,1.06,1.06,0,0,1,.16-.65A.61.61,0,0,1,41.65,25.28Zm.26.87a1.18,1.18,0,0,0-.06-.44.22.22,0,0,0-.2-.13.23.23,0,0,0-.22.13,1.64,1.64,0,0,0,0,.88.23.23,0,0,0,.21.13.23.23,0,0,0,.21-.14A1.09,1.09,0,0,0,41.91,26.15Zm0,1.89h-.39l1.77-2.73h.41Zm2.35-.84a1.09,1.09,0,0,1-.17.65.64.64,0,0,1-.51.22.59.59,0,0,1-.51-.22,1,1,0,0,1-.18-.65,1.07,1.07,0,0,1,.17-.65.64.64,0,0,1,.53-.22.61.61,0,0,1,.51.22A1.1,1.1,0,0,1,44.27,27.2Zm-.41,0a1.18,1.18,0,0,0-.06-.44.23.23,0,0,0-.42,0,1.09,1.09,0,0,0-.06.43,1,1,0,0,0,.07.44.22.22,0,0,0,.2.13.2.2,0,0,0,.2-.14A.9.9,0,0,0,43.86,27.2Z"/></symbol></defs><title>officeAsset 13</title><g id="Layer_2" data-name="Layer 2"><g id="Layer_1-2" data-name="Layer 1"><use width="78.62" height="74.29" xlink:href="#New_Symbol_13"/></g></g></svg>