<svg xmlns="http://www.w3.org/2000/svg" xmlns:xlink="http://www.w3.org/1999/xlink" viewBox="0 0 60.77 74.88"><defs><style>.cls-1{fill:#4a444a;}.cls-2{fill:#cfd9da;}.cls-3{fill:#332c33;}.cls-4{fill:#595859;}.cls-5,.cls-6{fill:#d5d6d8;}.cls-6{opacity:0.55;mix-blend-mode:multiply;}.cls-7{fill:#babcbf;}.cls-8{fill:#6ec8d3;}.cls-9{fill:#666166;}.cls-10{fill:#ffcb00;}</style><symbol id="New_Symbol_12" data-name="New Symbol 12" viewBox="0 0 60.77 74.88"><polygon class="cls-1" points="18.16 74.88 43.15 74.88 43.15 67.23 42.08 67.23 42.08 73.95 19.23 73.95 19.23 18.64 14.95 18.64 14.95 73.95 13.86 73.95 11.21 73.95 11.21 18.64 6.93 18.64 6.93 73.95 4.61 73.95 4 73.95 3.96 73.95 3.96 7.66 2.89 7.66 2.89 74.88 4 74.88 4.61 74.88 8 74.88 8 19.57 10.14 19.57 10.14 74.88 13.86 74.88 15.86 74.88 16.02 74.88 16.02 19.57 18.16 19.57 18.16 74.88"/><rect class="cls-2" x="10.79" y="1.39" width="3.23" height="1.68"/><rect class="cls-2" x="10.79" y="3.95" width="3.23" height="1.12"/><path class="cls-3" d="M.56,0H6.13a.56.56,0,0,1,.56.56V7.7a.56.56,0,0,1-.56.56h-.9v3.3a.56.56,0,0,1-.56.56H2a.56.56,0,0,1-.56-.56V8.26H.56A.56.56,0,0,1,0,7.7V.56A.56.56,0,0,1,.56,0Z"/><rect class="cls-3" x="3.59" y="0.9" width="8.93" height="4.78"/><rect class="cls-4" x="13.57" y="1.78" width="0.45" height="0.9"/><rect class="cls-4" x="13.57" y="4.16" width="0.45" height="0.7"/><path class="cls-5" d="M55.52,69.73h-27a2.23,2.23,0,0,1-2.23-2.23V61.82H57.75V67.5A2.23,2.23,0,0,1,55.52,69.73Z"/><rect class="cls-6" x="26.33" y="61.82" width="31.42" height="4.72"/><rect class="cls-5" x="23.31" y="26.51" width="37.46" height="37.46" rx="2.76"/><path class="cls-7" d="M56.08,62.15H28a2.88,2.88,0,0,1-2.87-2.87V31.2A2.88,2.88,0,0,1,28,28.33H56.08A2.88,2.88,0,0,1,59,31.2V59.28A2.88,2.88,0,0,1,56.08,62.15ZM28,29.2a2,2,0,0,0-2,2V59.28a2,2,0,0,0,2,2H56.08a2,2,0,0,0,2-2V31.2a2,2,0,0,0-2-2Z"/><rect class="cls-1" x="23.31" y="38.71" width="37.46" height="3.34"/><circle class="cls-8" cx="32.68" cy="52.45" r="5.01"/><circle class="cls-9" cx="32.68" cy="52.45" r="3.54"/><rect class="cls-3" x="30.92" y="50.66" width="3.52" height="1.36"/><rect class="cls-3" x="30.92" y="53.25" width="3.52" height="0.98"/><path class="cls-10" d="M54.84,51.52h-8.6a.56.56,0,0,1-.47-.86L50.07,44A.55.55,0,0,1,51,44l4.3,6.66A.55.55,0,0,1,54.84,51.52Z"/><polygon class="cls-3" points="49.9 48.43 51.1 46.73 50.04 46.73 49.28 49.01 50.75 48.6 50.3 49.66 50.11 49.39 50.07 50.37 50.79 49.7 50.47 49.73 51.63 47.94 49.9 48.43"/></symbol></defs><title>officeAsset 23</title><g id="Layer_2" data-name="Layer 2"><g id="Layer_1-2" data-name="Layer 1"><use width="60.77" height="74.88" xlink:href="#New_Symbol_12"/></g></g></svg>