<svg xmlns="http://www.w3.org/2000/svg" xmlns:xlink="http://www.w3.org/1999/xlink" viewBox="0 0 97.63 54.66"><defs><style>.cls-1{fill:#48c395;}.cls-2{fill:#ffcb00;}.cls-3,.cls-4{fill:#d0d1d3;}.cls-15,.cls-4{mix-blend-mode:multiply;}.cls-5{fill:#4a444a;}.cls-6{fill:#b7d4e7;}.cls-7{fill:#90beda;}.cls-8{fill:#006aaa;}.cls-9{fill:#726d72;}.cls-10{fill:#a3a5a9;}.cls-11{fill:#fff;}.cls-12{fill:url(#linear-gradient);}.cls-13{fill:#e5e6e7;}.cls-14{fill:url(#linear-gradient-2);}.cls-15{fill:#cfd1d3;}.cls-16{fill:url(#linear-gradient-3);}.cls-17{fill:#242424;}.cls-18{fill:#221a22;}.cls-19{fill:#d8d8d8;}.cls-20{fill:#332c33;}.cls-21{fill:#c0bec0;}.cls-22{fill:#5e585e;opacity:0.52;mix-blend-mode:screen;}.cls-23{fill:#eae9ea;}.cls-24{fill:#ddd;}.cls-25{fill:#f4f3f4;}.cls-26{fill:#9a9a9b;}.cls-27{fill:#ff476f;}.cls-28{fill:#8d8d8d;}.cls-29{fill:#797979;}.cls-30{fill:#342d34;}</style><linearGradient id="linear-gradient" x1="16.54" y1="33.19" x2="23.94" y2="23.36" gradientUnits="userSpaceOnUse"><stop offset="0" stop-color="#93e3fc"/><stop offset="1" stop-color="#d0e3a7"/></linearGradient><linearGradient id="linear-gradient-2" x1="41.01" y1="33.19" x2="48.41" y2="23.36" xlink:href="#linear-gradient"/><linearGradient id="linear-gradient-3" x1="53.3" y1="33.19" x2="60.7" y2="23.36" xlink:href="#linear-gradient"/><symbol id="New_Symbol_1" data-name="New Symbol 1" viewBox="0 0 97.63 54.66"><ellipse class="cls-1" cx="48.81" cy="43.66" rx="48.81" ry="11"/><circle class="cls-2" cx="18.91" cy="6.36" r="6.36"/><polygon class="cls-3" points="39.27 38.58 13.8 38.58 13.8 20.52 33.35 18.49 39.27 18.49 39.27 38.58"/><polygon class="cls-4" points="39.27 21.64 39.27 18.49 13.8 19.9 13.8 21.64 39.27 21.64"/><polygon class="cls-5" points="50.37 20.66 50.32 4.72 27.34 4.72 12.55 20.66 50.37 20.66"/><path class="cls-6" d="M40.07,6.58a2.53,2.53,0,0,1-.56.57l-.12.14a9.81,9.81,0,0,1-1.25,1.18,1.08,1.08,0,0,1-.37.21c-.76,1-1.64,1.9-2.42,2.87a27.56,27.56,0,0,1-2.44,2.5,5,5,0,0,1-.64.67,14.58,14.58,0,0,0-1.1,1.22c-.13.13-.31.28-.48.43l-.23.24a.1.1,0,0,0,0,.05,10.09,10.09,0,0,1-.63.8c-.25.28-.48.53-.74.77h0c-.07.06-.62.56-.52.41l-.08.11,6.93,0L46.83,6.6Z"/><path class="cls-7" d="M40.07,6.58a2.53,2.53,0,0,1-.56.57l-.12.14a9.81,9.81,0,0,1-1.25,1.18,1.08,1.08,0,0,1-.37.21c-.76,1-1.64,1.9-2.42,2.87-.23.29-.46.55-.7.8h0l5.46-5.77Z"/><path class="cls-7" d="M34,13l-1.12,1.08a5,5,0,0,1-.64.67,14.58,14.58,0,0,0-1.1,1.22c-.13.13-.31.28-.48.43l-.23.24a.1.1,0,0,0,0,.05,10.09,10.09,0,0,1-.63.8c-.25.28-.48.53-.74.77h0c-.07.06-.62.56-.52.41l-.08.11h.22L34.14,13Z"/><polygon class="cls-7" points="41.36 12.37 46.83 6.6 40.64 6.58 35.17 12.35 41.36 12.37"/><polygon class="cls-8" points="41.33 12.12 46.32 6.84 40.67 6.83 35.67 12.11 41.33 12.12"/><polygon class="cls-7" points="37.09 12.22 42.34 6.67 42.13 6.67 36.87 12.22 37.09 12.22"/><polygon class="cls-7" points="38.48 12.23 43.73 6.67 43.51 6.67 38.26 12.22 38.48 12.23"/><path class="cls-7" d="M45.23,8.22,45.49,8l-5.94,0a3.44,3.44,0,0,1-.27.27Z"/><path class="cls-7" d="M43.85,9.62l.26-.27-6,0a1.72,1.72,0,0,1-.27.27Z"/><path class="cls-7" d="M42.46,11l.26-.27-5.94,0a2.42,2.42,0,0,1-.27.28Z"/><polygon class="cls-7" points="39.86 12.23 45.12 6.67 44.9 6.67 39.65 12.23 39.86 12.23"/><polygon class="cls-7" points="35.38 18.77 40.84 12.99 34.65 12.97 29.19 18.75 35.38 18.77"/><polygon class="cls-8" points="35.35 18.52 40.34 13.24 34.68 13.22 29.69 18.5 35.35 18.52"/><polygon class="cls-7" points="31.1 18.62 36.36 13.06 36.14 13.06 30.89 18.62 31.1 18.62"/><polygon class="cls-7" points="32.49 18.62 37.74 13.07 37.53 13.07 32.28 18.62 32.49 18.62"/><path class="cls-7" d="M39.25,14.62l.26-.28-5.95,0a1.44,1.44,0,0,1-.27.28Z"/><path class="cls-7" d="M37.86,16l.26-.27-5.94,0a3.44,3.44,0,0,1-.27.27Z"/><path class="cls-7" d="M36.48,17.42l.26-.27-6,0a1.72,1.72,0,0,1-.27.27Z"/><polygon class="cls-7" points="33.88 18.63 39.13 13.07 38.92 13.07 33.66 18.63 33.88 18.63"/><polygon class="cls-6" points="27.27 6.54 15.82 18.71 28.71 18.75 40.16 6.58 27.27 6.54"/><polygon class="cls-7" points="27.99 12.33 33.45 6.55 27.27 6.54 21.8 12.31 27.99 12.33"/><polygon class="cls-8" points="27.96 12.08 32.95 6.8 27.3 6.79 22.3 12.06 27.96 12.08"/><polygon class="cls-7" points="23.72 12.18 28.97 6.62 28.76 6.62 23.5 12.18 23.72 12.18"/><polygon class="cls-7" points="25.1 12.18 30.36 6.63 30.14 6.63 24.89 12.18 25.1 12.18"/><path class="cls-7" d="M31.86,8.18l.26-.28-5.94,0a2.42,2.42,0,0,1-.27.28Z"/><path class="cls-7" d="M30.48,9.58l.26-.27-5.95,0a1.72,1.72,0,0,1-.27.27Z"/><path class="cls-7" d="M29.09,11l.26-.27-5.94,0-.27.27Z"/><polygon class="cls-7" points="26.49 12.19 31.75 6.63 31.53 6.63 26.28 12.19 26.49 12.19"/><polygon class="cls-7" points="22.01 18.73 27.47 12.95 21.28 12.93 15.82 18.71 22.01 18.73"/><polygon class="cls-8" points="21.98 18.48 26.97 13.2 21.31 13.18 16.32 18.46 21.98 18.48"/><polygon class="cls-7" points="17.73 18.58 22.99 13.02 22.77 13.02 17.52 18.58 17.73 18.58"/><polygon class="cls-7" points="19.12 18.58 24.38 13.03 24.16 13.03 18.91 18.58 19.12 18.58"/><path class="cls-7" d="M25.88,14.57l.26-.27-5.95,0a1.44,1.44,0,0,1-.27.28Z"/><path class="cls-7" d="M24.49,16l.26-.28H18.81l-.27.27Z"/><path class="cls-7" d="M23.11,17.38l.26-.27-5.95,0a1.72,1.72,0,0,1-.27.27Z"/><polygon class="cls-7" points="20.51 18.59 25.76 13.03 25.55 13.03 20.29 18.59 20.51 18.59"/><polygon class="cls-7" points="34.7 12.35 40.16 6.58 33.97 6.56 28.51 12.33 34.7 12.35"/><polygon class="cls-8" points="34.66 12.1 39.66 6.82 34 6.81 29.01 12.09 34.66 12.1"/><polygon class="cls-7" points="30.42 12.2 35.68 6.64 35.46 6.64 30.21 12.2 30.42 12.2"/><polygon class="cls-7" points="31.81 12.21 37.06 6.65 36.85 6.65 31.59 12.2 31.81 12.21"/><path class="cls-7" d="M38.57,8.2l.26-.28H32.88a1.72,1.72,0,0,1-.27.27Z"/><path class="cls-7" d="M37.18,9.6l.26-.27-5.94,0-.27.27Z"/><path class="cls-7" d="M35.8,11l.26-.27-6,0a1.38,1.38,0,0,1-.27.27Z"/><polygon class="cls-7" points="33.2 12.21 38.45 6.65 38.24 6.65 32.98 12.21 33.2 12.21"/><polygon class="cls-7" points="28.71 18.75 34.18 12.97 27.99 12.95 22.52 18.73 28.71 18.75"/><polygon class="cls-8" points="28.68 18.5 33.67 13.22 28.02 13.2 23.02 18.48 28.68 18.5"/><polygon class="cls-7" points="24.44 18.6 29.69 13.04 29.48 13.04 24.22 18.6 24.44 18.6"/><polygon class="cls-7" points="25.82 18.6 31.08 13.05 30.86 13.05 25.61 18.6 25.82 18.6"/><path class="cls-7" d="M32.58,14.59l.26-.27-5.94,0a2.42,2.42,0,0,1-.27.28Z"/><path class="cls-7" d="M31.2,16l.26-.27-5.95,0a1.72,1.72,0,0,1-.27.27Z"/><path class="cls-7" d="M29.81,17.4l.26-.27-5.94,0a3.44,3.44,0,0,1-.27.27Z"/><polygon class="cls-7" points="27.21 18.61 32.47 13.05 32.25 13.05 27 18.61 27.21 18.61"/><rect class="cls-9" x="27.25" y="25.27" width="6.05" height="13.31"/><rect class="cls-5" x="27.82" y="26.06" width="4.92" height="12.53"/><path class="cls-9" d="M32.21,32.58a.32.32,0,0,1-.32.32.32.32,0,0,1-.33-.32.33.33,0,0,1,.33-.33A.32.32,0,0,1,32.21,32.58Z"/><polygon class="cls-10" points="63.28 38.58 37.47 38.58 37.47 18.49 50.37 4.83 63.28 18.49 63.28 38.58"/><polygon class="cls-4" points="50.37 4.83 37.47 18.49 37.47 21.8 50.37 8.71 63.28 21.8 63.28 18.49 50.37 4.83"/><rect class="cls-11" x="16.06" y="23.7" width="7.96" height="9.67"/><rect class="cls-12" x="16.7" y="24.47" width="6.69" height="8.12"/><rect class="cls-11" x="19.75" y="23.96" width="0.56" height="9.35"/><rect class="cls-11" x="16.34" y="28.28" width="7.39" height="0.71"/><rect class="cls-13" x="40.54" y="23.7" width="7.96" height="9.67"/><rect class="cls-14" x="41.17" y="24.47" width="6.69" height="8.12"/><rect class="cls-15" x="41.17" y="24.47" width="6.69" height="8.12"/><rect class="cls-13" x="44.23" y="23.96" width="0.56" height="9.35"/><rect class="cls-13" x="40.81" y="28.28" width="7.39" height="0.71"/><rect class="cls-13" x="52.82" y="23.7" width="7.96" height="9.67"/><rect class="cls-16" x="53.46" y="24.47" width="6.69" height="8.12"/><rect class="cls-15" x="53.46" y="24.47" width="6.69" height="8.12"/><rect class="cls-13" x="56.51" y="23.96" width="0.56" height="9.35"/><rect class="cls-13" x="53.1" y="28.28" width="7.39" height="0.71"/><polygon class="cls-5" points="64.66 19.5 51.49 5.92 51.49 5.92 51.37 5.8 50.35 4.75 50.32 4.72 50.29 4.75 49.27 5.8 49.15 5.92 49.16 5.92 35.98 19.5 37.18 20.66 50.32 7.13 63.46 20.66 64.66 19.5"/><path class="cls-17" d="M50.14,46.93s-.65,1,.4,1H81.92c.67,0,1-1.11.25-1.3S51,46.64,50.14,46.93Z"/><path class="cls-18" d="M50.73,46.93H61.36s-1.87-6.77-5.78-5.75S50.43,44.31,50.73,46.93Z"/><path class="cls-18" d="M73.65,46.93h8.5s.25-6.77-3.66-5.75S73.35,44.31,73.65,46.93Z"/><path class="cls-19" d="M82.52,46.93a26.49,26.49,0,0,0-.21-6.6c-.35-1.84-.73-3.67-2.44-4.47-4.5-2.12-15.44-.94-18.21,0s-11.21,5.39-11.78,7.88a6,6,0,0,0,.24,3.19h1.45S51,43,56,43a3.75,3.75,0,0,1,3.8,3.89h15.3s-.57-3.88,3.28-3.88c0,0,3.62-.15,3.29,3.88Z"/><path class="cls-20" d="M58.58,46.93a3,3,0,1,1-3-3A3,3,0,0,1,58.58,46.93Z"/><path class="cls-21" d="M57.42,46.93a1.85,1.85,0,1,1-1.84-1.84A1.85,1.85,0,0,1,57.42,46.93Z"/><path class="cls-20" d="M81.38,46.93a3,3,0,1,1-3-3A3,3,0,0,1,81.38,46.93Z"/><path class="cls-21" d="M80.21,46.93a1.84,1.84,0,1,1-1.84-1.84A1.84,1.84,0,0,1,80.21,46.93Z"/><path class="cls-20" d="M55.58,40.5s5.38-3.33,8-3.88,12.74-1,14.31,0a4.45,4.45,0,0,1,1.78,3Z"/><path class="cls-22" d="M79.21,38.17a3.73,3.73,0,0,0-1.33-1.55c-1.57-1-11.7-.54-14.31,0a22.55,22.55,0,0,0-4.92,2.12c.74,0,4.13-.79,4.85-.91A39.61,39.61,0,0,1,79.21,38.17Z"/><path class="cls-20" d="M52.52,41a7.86,7.86,0,0,0-.79.44,12.8,12.8,0,0,0-1.19,1.16,5.6,5.6,0,0,0,2.72-.44,1.1,1.1,0,0,0,.43-1,.4.4,0,0,0-.48-.38A2.56,2.56,0,0,0,52.52,41Z"/><path class="cls-23" d="M52.23,41.16a5.62,5.62,0,0,0-.56.32,10.4,10.4,0,0,0-.86.83,4.14,4.14,0,0,0,2-.31.8.8,0,0,0,.3-.71.29.29,0,0,0-.34-.28A3.05,3.05,0,0,0,52.23,41.16Z"/><polygon class="cls-19" points="69.05 35.84 68.08 40.22 69.05 40.22 69.79 35.84 69.05 35.84"/><rect class="cls-20" x="76.15" y="40.51" width="2.22" height="0.49"/><rect class="cls-20" x="65.09" y="40.83" width="2.22" height="0.49"/><path class="cls-24" d="M57.42,46.89a1.85,1.85,0,1,1-1.88-1.8A1.84,1.84,0,0,1,57.42,46.89Z"/><path class="cls-25" d="M56.35,47a.82.82,0,1,1-.83-.81A.82.82,0,0,1,56.35,47Z"/><path class="cls-26" d="M54.9,46.22l.34-.89A1.62,1.62,0,0,0,54,46.44Z"/><path class="cls-26" d="M56,46.11l1,0a1.63,1.63,0,0,0-1.47-.86h0Z"/><path class="cls-26" d="M54.66,47.32l-.7-.55V47a1.63,1.63,0,0,0,.64,1.27Z"/><path class="cls-26" d="M56.48,47.14l.26.93a1.61,1.61,0,0,0,.47-1.18,1.54,1.54,0,0,0-.09-.52Z"/><path class="cls-26" d="M55.64,47.89l-.76.5a1.67,1.67,0,0,0,.74.16,1.64,1.64,0,0,0,.9-.3Z"/><path class="cls-24" d="M80.21,46.9a1.84,1.84,0,1,1-1.87-1.81A1.83,1.83,0,0,1,80.21,46.9Z"/><path class="cls-25" d="M79.15,47a.81.81,0,0,1-.8.83.82.82,0,0,1-.84-.8.82.82,0,0,1,1.64,0Z"/><path class="cls-26" d="M77.7,46.23l.33-.9a1.65,1.65,0,0,0-1.21,1.12Z"/><path class="cls-26" d="M78.82,46.11l1,0a1.63,1.63,0,0,0-1.47-.87h0Z"/><path class="cls-26" d="M77.46,47.33l-.7-.56a1.09,1.09,0,0,0,0,.18,1.61,1.61,0,0,0,.65,1.27Z"/><path class="cls-26" d="M79.27,47.15l.26.93A1.62,1.62,0,0,0,80,46.89a1.71,1.71,0,0,0-.09-.51Z"/><path class="cls-26" d="M78.43,47.9l-.75.49a1.5,1.5,0,0,0,.73.16,1.53,1.53,0,0,0,.91-.3Z"/><path class="cls-27" d="M82.49,41.76a7.9,7.9,0,0,1,.11,1.17c-.1.18-1.52,0-1.52,0s-1.06-1.11-1-1.28A10.09,10.09,0,0,1,82.49,41.76Z"/><path class="cls-28" d="M62,46.59a1.53,1.53,0,0,1-1.5-1.22l-.9-4.26.33-.07.9,4.26a1.2,1.2,0,0,0,1.19,1L72.71,46a1,1,0,0,0,.9-.68,4.57,4.57,0,0,1,4.78-3.28h.11a1,1,0,0,0,1-.92c0-.32,0-.63,0-.91h.34c0,.29,0,.61,0,.94a1.33,1.33,0,0,1-1.31,1.24,4.25,4.25,0,0,0-4.56,3,1.32,1.32,0,0,1-1.22.92L62,46.59Z"/><polygon class="cls-28" points="68.43 40.8 67.86 46.37 68.14 46.3 68.74 40.79 68.43 40.8"/><path class="cls-29" d="M81.52,40.33a.75.75,0,1,1-.75-.75A.76.76,0,0,1,81.52,40.33Z"/><path class="cls-2" d="M81.22,40.33a.45.45,0,1,1-.45-.45A.45.45,0,0,1,81.22,40.33Z"/><path class="cls-2" d="M91.26,47.79H86.44a1.53,1.53,0,0,1-1.52-1.52V41.56a.94.94,0,0,0-.94-.93h-3.2V40H84a1.52,1.52,0,0,1,1.52,1.52l0,4.71a.93.93,0,0,0,.93.93h4.82a.94.94,0,0,0,.94-.94V32.49a1,1,0,0,0-1-1H67.46a1.56,1.56,0,0,1-1.55-1.57V27.75h.59v2.18a1,1,0,0,0,1,1H91.24a1.57,1.57,0,0,1,1.55,1.57V46.26A1.54,1.54,0,0,1,91.26,47.79Z"/><path class="cls-20" d="M67.28,24.17H65.2a.21.21,0,0,0-.21.21v2.68a.21.21,0,0,0,.21.21h.33V28.5a.21.21,0,0,0,.21.21h1A.21.21,0,0,0,67,28.5V27.27h.33a.21.21,0,0,0,.21-.21V24.38A.21.21,0,0,0,67.28,24.17Z"/><rect class="cls-30" x="63.28" y="22.72" width="1.72" height="6.12"/></symbol></defs><title>officeAsset 3</title><g id="Layer_2" data-name="Layer 2"><g id="Layer_1-2" data-name="Layer 1"><use width="97.63" height="54.66" xlink:href="#New_Symbol_1"/></g></g></svg>